<svg width="40" height="38" viewBox="0 0 40 38" fill="none" xmlns="http://www.w3.org/2000/svg">
<path d="M25.508 14C27.441 14 29.008 15.567 29.008 17.5V24H29V24.5C29 25.3284 28.3284 26 27.5 26C26.6716 26 26 25.3284 26 24.5V20H26.008V17.5C26.008 17.2239 25.7842 17 25.508 17H14.5039C14.2277 17 14.0039 17.2239 14.0039 17.5V24H14V24.5C14 25.3284 13.3284 26 12.5 26C11.6716 26 11 25.3284 11 24.5V20H11.0039V17.5C11.0039 15.567 12.5709 14 14.5039 14H25.508ZM37 17.5V24.5C37 25.3284 37.6716 26 38.5 26C39.3284 26 40 25.3284 40 24.5V17.5C40 15.567 38.433 14 36.5 14L29.7493 13.9981C30.4361 14.8289 30.8834 15.8649 30.9857 17.0004L36.5 17C36.7761 17 37 17.2239 37 17.5ZM0 24.5C0 25.3284 0.671573 26 1.5 26C2.32843 26 3 25.3284 3 24.5V17.5C3 17.2239 3.22386 17 3.5 17L9.02624 17.0004C9.12848 15.8649 9.57582 14.8289 10.2626 13.9981L3.5 14C1.567 14 0 15.567 0 17.5V24.5ZM20 0C23.3137 0 26 2.68629 26 6C26 9.31371 23.3137 12 20 12C16.6863 12 14 9.31371 14 6C14 2.68629 16.6863 0 20 0ZM20 3C18.3431 3 17 4.34315 17 6C17 7.65685 18.3431 9 20 9C21.6569 9 23 7.65685 23 6C23 4.34315 21.6569 3 20 3ZM33 2C35.7614 2 38 4.23858 38 7C38 9.76142 35.7614 12 33 12C30.2386 12 28 9.76142 28 7C28 4.23858 30.2386 2 33 2ZM33 5C31.8954 5 31 5.89543 31 7C31 8.10457 31.8954 9 33 9C34.1046 9 35 8.10457 35 7C35 5.89543 34.1046 5 33 5ZM7 2C9.76142 2 12 4.23858 12 7C12 9.76142 9.76142 12 7 12C4.23858 12 2 9.76142 2 7C2 4.23858 4.23858 2 7 2ZM7 5C5.89543 5 5 5.89543 5 7C5 8.10457 5.89543 9 7 9C8.10457 9 9 8.10457 9 7C9 5.89543 8.10457 5 7 5ZM1.5 28C0.671573 28 0 28.6716 0 29.5V30.5C0 34.6421 3.35787 38 7.5 38H32.5C36.6421 38 40 34.6421 40 30.5V29.5C40 28.6716 39.3284 28 38.5 28H1.5ZM7.5 35C5.18372 35 3.27619 33.25 3.02746 31H36.9725C36.7238 33.25 34.8163 35 32.5 35H7.5Z" fill="#5BA5F2"/>
</svg>
