<svg width="41" height="40" viewBox="0 0 41 40" fill="none" xmlns="http://www.w3.org/2000/svg">
<path d="M12.9109 13.3333C14.8957 13.3333 16.5203 14.8753 16.6523 16.8266L16.6609 17.0833V36.25C16.6609 38.2348 15.119 39.8594 13.1677 39.9913L12.9109 40H3.75C1.76523 40 0.140592 38.4581 0.00865141 36.5067L0 36.25V17.0833C0 15.0986 1.54194 13.4739 3.49325 13.342L3.75 13.3333H12.9109ZM12.9109 15.8333H3.75C3.11717 15.8333 2.59418 16.3036 2.51141 16.9137L2.5 17.0833V36.25C2.5 36.8828 2.97026 37.4058 3.58038 37.4886L3.75 37.5H12.9109C13.5437 37.5 14.0667 37.0297 14.1495 36.4196L14.1609 36.25V17.0833C14.1609 16.4505 13.6907 15.9275 13.0805 15.8447L12.9109 15.8333ZM9.58331 32.5C10.2737 32.5 10.8333 33.0596 10.8333 33.75C10.8333 34.3828 10.3631 34.9058 9.75293 34.9886L9.58331 35H7.08139C6.39104 35 5.83139 34.4404 5.83139 33.75C5.83139 33.1172 6.30165 32.5942 6.91177 32.5114L7.08139 32.5H9.58331ZM36.2544 0C38.2391 0 39.8638 1.54194 39.9957 3.49325L40.0044 3.75V22.5C40.0044 24.4848 38.4624 26.1094 36.5111 26.2414L36.2544 26.25H28.33V30.8333H30.4167C31.107 30.8333 31.6667 31.393 31.6667 32.0833C31.6667 32.7162 31.1964 33.2392 30.5863 33.3219L30.4167 33.3333H18.3333V30.8333H25.83V26.25H18.3333V23.75H36.2544C36.8872 23.75 37.4102 23.2797 37.493 22.6696L37.5044 22.5V3.75C37.5044 3.11717 37.0341 2.59418 36.424 2.51141L36.2544 2.5H8.75C8.11717 2.5 7.59418 2.97026 7.51141 3.58038L7.5 3.75V11.6667H5V3.75C5 1.76523 6.54194 0.140592 8.49325 0.00865141L8.75 0H36.2544Z" fill="#5BA5F2"/>
</svg>
