<svg width="40" height="40" viewBox="0 0 40 40" fill="none" xmlns="http://www.w3.org/2000/svg">
<path d="M10 13.3333C13.6819 13.3333 16.6667 10.3486 16.6667 6.66667C16.6667 2.98477 13.6819 0 10 0C6.3181 0 3.33333 2.98477 3.33333 6.66667C3.33333 10.3486 6.3181 13.3333 10 13.3333ZM10 10C8.15905 10 6.66667 8.50762 6.66667 6.66667C6.66667 4.82572 8.15905 3.33333 10 3.33333C11.841 3.33333 13.3333 4.82572 13.3333 6.66667C13.3333 8.50762 11.841 10 10 10ZM0 19.4444C0 17.2967 1.74111 15.5556 3.88889 15.5556H16.1111C18.2589 15.5556 20 17.2967 20 19.4444V30C20 35.5229 15.5228 40 10 40C4.47715 40 0 35.5229 0 30V19.4444ZM3.88889 18.8889C3.58206 18.8889 3.33333 19.1376 3.33333 19.4444V30C3.33333 33.6819 6.3181 36.6667 10 36.6667C13.6819 36.6667 16.6667 33.6819 16.6667 30V19.4444C16.6667 19.1376 16.4179 18.8889 16.1111 18.8889H3.88889ZM16.7274 12.4764C17.6941 13.022 18.8105 13.3333 19.9997 13.3333C23.6816 13.3333 26.6664 10.3486 26.6664 6.66667C26.6664 2.98477 23.6816 0 19.9997 0C18.8105 0 17.6941 0.311351 16.7274 0.856982C17.4531 1.69658 18.0243 2.67344 18.3967 3.74337C18.8723 3.482 19.4186 3.33333 19.9997 3.33333C21.8406 3.33333 23.333 4.82572 23.333 6.66667C23.333 8.50762 21.8406 10 19.9997 10C19.4186 10 18.8723 9.85134 18.3967 9.58997C18.0243 10.6599 17.4531 11.6368 16.7274 12.4764ZM17.4671 39.6765C18.276 39.8876 19.1247 40 19.9997 40C25.5225 40 29.9997 35.5229 29.9997 30V19.4444C29.9997 17.2967 28.2586 15.5556 26.1108 15.5556H20.8251C21.5871 16.4782 22.0834 17.6284 22.197 18.8889H26.1108C26.4176 18.8889 26.6664 19.1376 26.6664 19.4444V30C26.6664 33.5987 23.815 36.5314 20.2483 36.6621C19.4963 37.8166 18.5545 38.8362 17.4671 39.6765ZM26.7274 12.4764C27.6941 13.022 28.8105 13.3333 29.9997 13.3333C33.6816 13.3333 36.6664 10.3486 36.6664 6.66667C36.6664 2.98477 33.6816 0 29.9997 0C28.8105 0 27.6941 0.311351 26.7274 0.856982C27.4531 1.69658 28.0243 2.67344 28.3967 3.74337C28.8723 3.482 29.4186 3.33333 29.9997 3.33333C31.8406 3.33333 33.333 4.82572 33.333 6.66667C33.333 8.50762 31.8406 10 29.9997 10C29.4186 10 28.8723 9.85134 28.3967 9.58997C28.0243 10.6599 27.4531 11.6368 26.7274 12.4764ZM27.4671 39.6765C28.276 39.8876 29.1247 40 29.9997 40C35.5225 40 39.9997 35.5229 39.9997 30V19.4444C39.9997 17.2967 38.2586 15.5556 36.1108 15.5556H30.8251C31.5871 16.4782 32.0834 17.6284 32.197 18.8889H36.1108C36.4176 18.8889 36.6664 19.1376 36.6664 19.4444V30C36.6664 33.5987 33.815 36.5314 30.2483 36.6621C29.4963 37.8166 28.5545 38.8362 27.4671 39.6765Z" fill="#5BA5F2"/>
</svg>
