<svg width="42" height="40" viewBox="0 0 42 40" fill="none" xmlns="http://www.w3.org/2000/svg">
<path d="M32.3735 1.90432C32.3735 0.852595 31.5209 0 30.4692 0C29.4175 0 28.5649 0.852595 28.5649 1.90432V3.80865H20.9476C19.8958 3.80865 19.0432 4.66124 19.0432 5.71297V8.09338C19.0432 9.14511 19.8958 9.9977 20.9476 9.9977C21.9993 9.9977 22.8519 9.14511 22.8519 8.09338V7.6173H38.0865V8.09338C38.0865 9.14511 38.9391 9.9977 39.9908 9.9977C41.0425 9.9977 41.8951 9.14511 41.8951 8.09338V5.71297C41.8951 4.66124 41.0425 3.80865 39.9908 3.80865H32.3735V1.90432ZM14.4021 12.3885L14.5088 12.6107L24.6155 37.3756C25.0129 38.3494 24.5457 39.4609 23.5719 39.8583C22.6677 40.2273 21.6447 39.8508 21.185 39.0155L21.0892 38.8147L18.4591 32.3716H6.48851L3.64931 38.8588C3.25768 39.7535 2.26145 40.196 1.34973 39.917L1.14115 39.8397C0.246508 39.448 -0.196041 38.4518 0.0829828 37.5401L0.160304 37.3315L11.0011 12.5666C11.6423 11.1019 13.6569 11.0535 14.4021 12.3885ZM12.6842 18.2195L8.1548 28.563H16.9052L12.6842 18.2195ZM23.8031 11.4259C23.8031 10.3742 24.6557 9.52162 25.7074 9.52162H35.2291C35.9993 9.52162 36.6937 9.98559 36.9884 10.6972C37.2832 11.4088 37.1203 12.2279 36.5756 12.7725L33.1614 16.1868H39.9901C41.0418 16.1868 41.8944 17.0393 41.8944 18.0911C41.8944 19.1428 41.0418 19.9954 39.9901 19.9954H32.3726V25.6778C32.3726 28.8669 29.2984 31.1542 26.2438 30.2378L25.1602 29.9128C24.1529 29.6106 23.5812 28.5489 23.8834 27.5416C24.1856 26.5342 25.2473 25.9626 26.2546 26.2648L27.3382 26.5898C27.9491 26.7731 28.5639 26.3156 28.5639 25.6778V19.9954H20.9476C19.8958 19.9954 19.0432 19.1428 19.0432 18.0911C19.0432 17.0393 19.8958 16.1868 20.9476 16.1868H28.5639C28.5639 15.6817 28.7646 15.1973 29.1217 14.8402L30.6316 13.3303H25.7074C24.6557 13.3303 23.8031 12.4777 23.8031 11.4259Z" fill="#5BA5F2"/>
</svg>
