<svg width="40" height="24" viewBox="0 0 40 24" fill="none" xmlns="http://www.w3.org/2000/svg">
<path d="M20.0013 7.20793C24.5448 7.20793 28.228 10.8912 28.228 15.4347C28.228 19.9782 24.5448 23.6615 20.0013 23.6615C15.4577 23.6615 11.7745 19.9782 11.7745 15.4347C11.7745 10.8912 15.4577 7.20793 20.0013 7.20793ZM20.0013 10.293C17.1616 10.293 14.8595 12.595 14.8595 15.4347C14.8595 18.2744 17.1616 20.5764 20.0013 20.5764C22.841 20.5764 25.143 18.2744 25.143 15.4347C25.143 12.595 22.841 10.293 20.0013 10.293ZM20.0013 0C29.4898 0 37.6808 6.47859 39.9535 15.5576C40.1603 16.384 39.6581 17.2217 38.8317 17.4285C38.0053 17.6354 37.1676 17.1332 36.9608 16.3068C35.0298 8.59277 28.0663 3.08504 20.0013 3.08504C11.9327 3.08504 4.96705 8.59751 3.03944 16.316C2.83302 17.1426 1.99566 17.6453 1.16914 17.4388C0.342612 17.2324 -0.160087 16.3951 0.0463283 15.5685C2.31505 6.48417 10.5086 0 20.0013 0Z" fill="#5BA5F2"/>
</svg>
