<svg width="34" height="40" viewBox="0 0 34 40" fill="none" xmlns="http://www.w3.org/2000/svg">
<path d="M16.7126 0C25.8047 0 33.1753 7.37058 33.1753 16.4626C33.1753 23.4186 28.2879 30.9992 18.6378 39.2872C17.5305 40.2382 15.8947 40.2382 14.783 39.2834L14.1452 38.7305C4.92222 30.6608 0.25 23.2635 0.25 16.4626C0.25 7.37058 7.62058 0 16.7126 0ZM16.7126 2.53271C9.01935 2.53271 2.78271 8.76935 2.78271 16.4626C2.78271 22.3758 7.08562 29.1884 15.8085 36.8205L16.4376 37.3659C16.5958 37.5017 16.8295 37.5017 16.9877 37.3659C26.1325 29.5117 30.6426 22.5164 30.6426 16.4626C30.6426 8.76935 24.4059 2.53271 16.7126 2.53271ZM16.7126 10.1309C20.2096 10.1309 23.0444 12.9657 23.0444 16.4626C23.0444 19.9596 20.2096 22.7944 16.7126 22.7944C13.2157 22.7944 10.3809 19.9596 10.3809 16.4626C10.3809 12.9657 13.2157 10.1309 16.7126 10.1309ZM16.7126 12.6636C14.6145 12.6636 12.9136 14.3645 12.9136 16.4626C12.9136 18.5608 14.6145 20.2617 16.7126 20.2617C18.8108 20.2617 20.5117 18.5608 20.5117 16.4626C20.5117 14.3645 18.8108 12.6636 16.7126 12.6636Z" fill="#5BA5F2"/>
</svg>
