<svg width="46" height="40" viewBox="0 0 46 40" fill="none" xmlns="http://www.w3.org/2000/svg">
<path d="M14.2855 23.5763V10.73C14.2855 9.01022 16.2095 7.99112 17.6322 8.9573L27.9473 15.9623C28.7814 16.5287 28.7821 17.7576 27.9487 18.325L17.6343 25.3476C16.2118 26.3161 14.2855 25.2973 14.2855 23.5763ZM0 7.14276C0 3.19792 3.19792 0 7.14276 0H32.8567C36.8016 0 39.9995 3.19792 39.9995 7.14276V27.1425C39.9995 31.0873 36.8016 34.2853 32.8567 34.2853H7.14276C3.19792 34.2853 0 31.0873 0 27.1425V7.14276ZM7.14276 2.85711C4.77586 2.85711 2.85711 4.77586 2.85711 7.14276V27.1425C2.85711 29.5094 4.77586 31.4282 7.14276 31.4282H32.8567C35.2236 31.4282 37.1424 29.5094 37.1424 27.1425V7.14276C37.1424 4.77586 35.2236 2.85711 32.8567 2.85711H7.14276ZM7.14276 37.1429C8.4459 38.8778 10.5206 40 12.8575 40H34.2858C40.5975 40 45.7142 34.8833 45.7142 28.5716V12.8575C45.7142 10.5206 44.592 8.4459 42.8571 7.14276V28.5716C42.8571 33.3054 39.0196 37.1429 34.2858 37.1429H7.14276Z" fill="#5BA5F2"/>
</svg>
