<?xml version="1.0" encoding="UTF-8"?><svg id="Layer_2" xmlns="http://www.w3.org/2000/svg" viewBox="0 0 90.07 90.07"><defs><style>.cls-1{fill:#202223;}</style></defs><g id="Team"><path class="cls-1" d="M88.88,69.72l-24.68-24.68,24.68-24.68c1.59-1.59,1.59-4.16,0-5.74L75.46,1.19c-1.59-1.59-4.16-1.59-5.74,0l-24.68,24.68L20.36,1.19c-1.59-1.59-4.16-1.59-5.74,0L1.19,14.61c-1.59,1.59-1.59,4.16,0,5.74l24.68,24.68L1.19,69.72c-1.59,1.59-1.59,4.16,0,5.74l13.42,13.42c1.59,1.59,4.16,1.59,5.74,0l24.68-24.68,24.68,24.68c1.59,1.59,4.16,1.59,5.74,0l13.42-13.42c1.59-1.59,1.59-4.16,0-5.74Z"/></g></svg>